<mxfile host="app.diagrams.net" agent="Mozilla/5.0 (X11; Ubuntu; Linux x86_64; rv:132.0) Gecko/20100101 Firefox/132.0" version="24.8.6">
  <diagram name="Page-1" id="RbRdEx7LKMOHVXa9Vndr">
    <mxGraphModel dx="857" dy="494" grid="1" gridSize="10" guides="1" tooltips="1" connect="1" arrows="1" fold="1" page="1" pageScale="1" pageWidth="850" pageHeight="1100" math="0" shadow="0">
      <root>
        <mxCell id="0" />
        <mxCell id="1" parent="0" />
        <mxCell id="ZQ7gyXQi0KkHRQITgzZB-7" value="[32:0]" style="text;html=1;align=center;verticalAlign=middle;whiteSpace=wrap;rounded=0;" vertex="1" parent="1">
          <mxGeometry y="250" width="60" height="30" as="geometry" />
        </mxCell>
        <mxCell id="ZQ7gyXQi0KkHRQITgzZB-9" value="[32:0]" style="text;html=1;align=center;verticalAlign=middle;whiteSpace=wrap;rounded=0;" vertex="1" parent="1">
          <mxGeometry x="140" y="250" width="60" height="30" as="geometry" />
        </mxCell>
        <mxCell id="ZQ7gyXQi0KkHRQITgzZB-10" value="[2:0]" style="text;html=1;align=center;verticalAlign=middle;whiteSpace=wrap;rounded=0;" vertex="1" parent="1">
          <mxGeometry x="260" y="250" width="60" height="30" as="geometry" />
        </mxCell>
        <mxCell id="ZQ7gyXQi0KkHRQITgzZB-14" style="edgeStyle=orthogonalEdgeStyle;rounded=0;orthogonalLoop=1;jettySize=auto;html=1;startArrow=classic;startFill=1;endArrow=none;endFill=0;" edge="1" parent="1" source="ZQ7gyXQi0KkHRQITgzZB-12">
          <mxGeometry relative="1" as="geometry">
            <mxPoint x="10" y="280" as="targetPoint" />
          </mxGeometry>
        </mxCell>
        <mxCell id="ZQ7gyXQi0KkHRQITgzZB-15" style="edgeStyle=orthogonalEdgeStyle;rounded=0;orthogonalLoop=1;jettySize=auto;html=1;entryX=0;entryY=0.5;entryDx=0;entryDy=0;" edge="1" parent="1" source="ZQ7gyXQi0KkHRQITgzZB-12" target="ZQ7gyXQi0KkHRQITgzZB-13">
          <mxGeometry relative="1" as="geometry" />
        </mxCell>
        <mxCell id="ZQ7gyXQi0KkHRQITgzZB-12" value="&lt;div&gt;ABS&lt;/div&gt;" style="whiteSpace=wrap;html=1;aspect=fixed;" vertex="1" parent="1">
          <mxGeometry x="70" y="240" width="80" height="80" as="geometry" />
        </mxCell>
        <mxCell id="ZQ7gyXQi0KkHRQITgzZB-16" style="edgeStyle=orthogonalEdgeStyle;rounded=0;orthogonalLoop=1;jettySize=auto;html=1;" edge="1" parent="1" source="ZQ7gyXQi0KkHRQITgzZB-13">
          <mxGeometry relative="1" as="geometry">
            <mxPoint x="310" y="280" as="targetPoint" />
          </mxGeometry>
        </mxCell>
        <mxCell id="ZQ7gyXQi0KkHRQITgzZB-13" value="&lt;div&gt;&amp;lt;&amp;lt; P+2&lt;/div&gt;&lt;div&gt;&amp;gt;&amp;gt; P&lt;br&gt;&lt;/div&gt;" style="whiteSpace=wrap;html=1;aspect=fixed;" vertex="1" parent="1">
          <mxGeometry x="190" y="240" width="80" height="80" as="geometry" />
        </mxCell>
        <mxCell id="ZQ7gyXQi0KkHRQITgzZB-37" style="edgeStyle=orthogonalEdgeStyle;rounded=0;orthogonalLoop=1;jettySize=auto;html=1;entryX=0.5;entryY=0;entryDx=0;entryDy=0;" edge="1" parent="1" source="ZQ7gyXQi0KkHRQITgzZB-17" target="ZQ7gyXQi0KkHRQITgzZB-36">
          <mxGeometry relative="1" as="geometry" />
        </mxCell>
        <mxCell id="ZQ7gyXQi0KkHRQITgzZB-17" value="&lt;div&gt;LUT&lt;/div&gt;" style="whiteSpace=wrap;html=1;aspect=fixed;" vertex="1" parent="1">
          <mxGeometry x="310" y="240" width="80" height="80" as="geometry" />
        </mxCell>
        <mxCell id="ZQ7gyXQi0KkHRQITgzZB-36" value="Coefficient converter" style="rounded=0;whiteSpace=wrap;html=1;" vertex="1" parent="1">
          <mxGeometry x="270" y="360" width="160" height="40" as="geometry" />
        </mxCell>
        <mxCell id="ZQ7gyXQi0KkHRQITgzZB-38" value="[32:0], [32:0]" style="text;html=1;align=center;verticalAlign=middle;whiteSpace=wrap;rounded=0;" vertex="1" parent="1">
          <mxGeometry x="350" y="320" width="80" height="30" as="geometry" />
        </mxCell>
        <mxCell id="ZQ7gyXQi0KkHRQITgzZB-39" value="" style="endArrow=classic;html=1;rounded=0;exitX=0.123;exitY=1.017;exitDx=0;exitDy=0;exitPerimeter=0;" edge="1" parent="1" source="ZQ7gyXQi0KkHRQITgzZB-36">
          <mxGeometry width="50" height="50" relative="1" as="geometry">
            <mxPoint x="360" y="470" as="sourcePoint" />
            <mxPoint x="290" y="440" as="targetPoint" />
          </mxGeometry>
        </mxCell>
        <mxCell id="ZQ7gyXQi0KkHRQITgzZB-42" value="" style="endArrow=classic;html=1;rounded=0;exitX=0.123;exitY=1.017;exitDx=0;exitDy=0;exitPerimeter=0;" edge="1" parent="1">
          <mxGeometry width="50" height="50" relative="1" as="geometry">
            <mxPoint x="330" y="400" as="sourcePoint" />
            <mxPoint x="330" y="439" as="targetPoint" />
          </mxGeometry>
        </mxCell>
        <mxCell id="ZQ7gyXQi0KkHRQITgzZB-43" value="" style="endArrow=classic;html=1;rounded=0;exitX=0.123;exitY=1.017;exitDx=0;exitDy=0;exitPerimeter=0;" edge="1" parent="1">
          <mxGeometry width="50" height="50" relative="1" as="geometry">
            <mxPoint x="370" y="400" as="sourcePoint" />
            <mxPoint x="370" y="439" as="targetPoint" />
          </mxGeometry>
        </mxCell>
        <mxCell id="ZQ7gyXQi0KkHRQITgzZB-44" value="" style="endArrow=classic;html=1;rounded=0;exitX=0.123;exitY=1.017;exitDx=0;exitDy=0;exitPerimeter=0;" edge="1" parent="1">
          <mxGeometry width="50" height="50" relative="1" as="geometry">
            <mxPoint x="409.89" y="400" as="sourcePoint" />
            <mxPoint x="409.89" y="439" as="targetPoint" />
          </mxGeometry>
        </mxCell>
        <mxCell id="ZQ7gyXQi0KkHRQITgzZB-53" style="edgeStyle=orthogonalEdgeStyle;rounded=0;orthogonalLoop=1;jettySize=auto;html=1;entryX=0.75;entryY=0;entryDx=0;entryDy=0;" edge="1" parent="1" source="ZQ7gyXQi0KkHRQITgzZB-45" target="ZQ7gyXQi0KkHRQITgzZB-51">
          <mxGeometry relative="1" as="geometry">
            <Array as="points">
              <mxPoint x="350" y="520" />
              <mxPoint x="210" y="520" />
            </Array>
          </mxGeometry>
        </mxCell>
        <mxCell id="ZQ7gyXQi0KkHRQITgzZB-45" value="" style="shape=trapezoid;perimeter=trapezoidPerimeter;whiteSpace=wrap;html=1;fixedSize=1;rotation=-180;" vertex="1" parent="1">
          <mxGeometry x="270" y="440" width="160" height="40" as="geometry" />
        </mxCell>
        <mxCell id="ZQ7gyXQi0KkHRQITgzZB-46" value="" style="endArrow=classic;html=1;rounded=0;entryX=0;entryY=0.5;entryDx=0;entryDy=0;" edge="1" parent="1" target="ZQ7gyXQi0KkHRQITgzZB-36">
          <mxGeometry width="50" height="50" relative="1" as="geometry">
            <mxPoint x="50" y="280" as="sourcePoint" />
            <mxPoint x="210" y="380" as="targetPoint" />
            <Array as="points">
              <mxPoint x="50" y="380" />
            </Array>
          </mxGeometry>
        </mxCell>
        <mxCell id="ZQ7gyXQi0KkHRQITgzZB-47" value="sign, gate" style="text;html=1;align=center;verticalAlign=middle;whiteSpace=wrap;rounded=0;" vertex="1" parent="1">
          <mxGeometry x="50" y="350" width="60" height="30" as="geometry" />
        </mxCell>
        <mxCell id="ZQ7gyXQi0KkHRQITgzZB-52" style="edgeStyle=orthogonalEdgeStyle;rounded=0;orthogonalLoop=1;jettySize=auto;html=1;exitX=0.25;exitY=0;exitDx=0;exitDy=0;startArrow=classic;startFill=1;endArrow=none;endFill=0;" edge="1" parent="1" source="ZQ7gyXQi0KkHRQITgzZB-51">
          <mxGeometry relative="1" as="geometry">
            <mxPoint x="30" y="280" as="targetPoint" />
            <Array as="points">
              <mxPoint x="170" y="520" />
              <mxPoint x="30" y="520" />
            </Array>
          </mxGeometry>
        </mxCell>
        <mxCell id="ZQ7gyXQi0KkHRQITgzZB-56" style="edgeStyle=orthogonalEdgeStyle;rounded=0;orthogonalLoop=1;jettySize=auto;html=1;" edge="1" parent="1" source="ZQ7gyXQi0KkHRQITgzZB-51">
          <mxGeometry relative="1" as="geometry">
            <mxPoint x="190" y="680" as="targetPoint" />
          </mxGeometry>
        </mxCell>
        <mxCell id="ZQ7gyXQi0KkHRQITgzZB-51" value="&lt;div&gt;MAC&lt;/div&gt;&lt;div&gt;y = mx + q&lt;br&gt;&lt;/div&gt;" style="whiteSpace=wrap;html=1;aspect=fixed;" vertex="1" parent="1">
          <mxGeometry x="150" y="560" width="80" height="80" as="geometry" />
        </mxCell>
        <mxCell id="ZQ7gyXQi0KkHRQITgzZB-54" value="[32:0]" style="text;html=1;align=center;verticalAlign=middle;whiteSpace=wrap;rounded=0;" vertex="1" parent="1">
          <mxGeometry x="20" y="490" width="60" height="30" as="geometry" />
        </mxCell>
        <mxCell id="ZQ7gyXQi0KkHRQITgzZB-55" value="[32:0], [32:0]" style="text;html=1;align=center;verticalAlign=middle;whiteSpace=wrap;rounded=0;" vertex="1" parent="1">
          <mxGeometry x="270" y="490" width="80" height="30" as="geometry" />
        </mxCell>
      </root>
    </mxGraphModel>
  </diagram>
</mxfile>
